# xmcd
#
# Track frame offsets:
#	150
#	18832
#	33592
#	52747
#	74376
#	93428
#	110093
#	128306
#	143850
#	164684
#	190939
#
# Disc length: 2824 seconds
#
# Revision: 1
# Processed by: cddbd v1.5.1PL2 Copyright (c) Steve Scherf et al.
# Submitted via: audiograbber 1.83.01
#
DISCID=910b060b
DTITLE=Randy McAllister - Temporary Fixes
DYEAR=1900
DGENRE=Blues
TTITLE0=The Chain
TTITLE1=Nobody Can Help You
TTITLE2=Never Had A Lot Of Faith
TTITLE3=That Chicken You're Fixin'
TTITLE4=Susie Goldigger and Sweet Betty
TTITLE5=Game Of Life
TTITLE6=Stronger Vice/Better Hobby
TTITLE7=Take Me Out Of New Orleans
TTITLE8=Man Who Went For Cigarettes
TTITLE9=Equalizer
TTITLE10=The Way
EXTD=
EXTT0=
EXTT1=
EXTT2=
EXTT3=
EXTT4=
EXTT5=
EXTT6=
EXTT7=
EXTT8=
EXTT9=
EXTT10=
PLAYORDER=
